<mxfile host="Electron" modified="2024-01-26T06:43:14.014Z" agent="Mozilla/5.0 (Windows NT 10.0; Win64; x64) AppleWebKit/537.36 (KHTML, like Gecko) draw.io/22.1.11 Chrome/114.0.5735.289 Electron/25.9.8 Safari/537.36" etag="NEOFMeChsnT0kC-PaAXr" version="22.1.11" type="device">
  <diagram name="第 1 页" id="LEL9wygDXHwi-IgbFFZK">
    <mxGraphModel dx="1418" dy="828" grid="1" gridSize="10" guides="1" tooltips="1" connect="1" arrows="1" fold="1" page="1" pageScale="1" pageWidth="827" pageHeight="1169" math="0" shadow="0">
      <root>
        <mxCell id="0" />
        <mxCell id="1" parent="0" />
        <mxCell id="WRZNmSoIend9t0IbDbHo-1" value="PBaseDefenseGame" style="shape=umlLifeline;perimeter=lifelinePerimeter;whiteSpace=wrap;html=1;container=1;dropTarget=0;collapsible=0;recursiveResize=0;outlineConnect=0;portConstraint=eastwest;newEdgeStyle={&quot;curved&quot;:0,&quot;rounded&quot;:0};" parent="1" vertex="1">
          <mxGeometry y="160" width="150" height="480" as="geometry" />
        </mxCell>
        <mxCell id="WRZNmSoIend9t0IbDbHo-2" value="CampSystem" style="shape=umlLifeline;perimeter=lifelinePerimeter;whiteSpace=wrap;html=1;container=1;dropTarget=0;collapsible=0;recursiveResize=0;outlineConnect=0;portConstraint=eastwest;newEdgeStyle={&quot;curved&quot;:0,&quot;rounded&quot;:0};" parent="1" vertex="1">
          <mxGeometry x="170" y="160" width="110" height="480" as="geometry" />
        </mxCell>
        <mxCell id="WRZNmSoIend9t0IbDbHo-31" value="" style="html=1;points=[[0,0,0,0,5],[0,1,0,0,-5],[1,0,0,0,5],[1,1,0,0,-5]];perimeter=orthogonalPerimeter;outlineConnect=0;targetShapes=umlLifeline;portConstraint=eastwest;newEdgeStyle={&quot;curved&quot;:0,&quot;rounded&quot;:0};" parent="WRZNmSoIend9t0IbDbHo-2" vertex="1">
          <mxGeometry x="50" y="240" width="10" height="60" as="geometry" />
        </mxCell>
        <mxCell id="WRZNmSoIend9t0IbDbHo-3" value="CampInfoUI" style="shape=umlLifeline;perimeter=lifelinePerimeter;whiteSpace=wrap;html=1;container=1;dropTarget=0;collapsible=0;recursiveResize=0;outlineConnect=0;portConstraint=eastwest;newEdgeStyle={&quot;curved&quot;:0,&quot;rounded&quot;:0};" parent="1" vertex="1">
          <mxGeometry x="303.5" y="160" width="110" height="480" as="geometry" />
        </mxCell>
        <mxCell id="WRZNmSoIend9t0IbDbHo-4" value="SoldierCamp" style="shape=umlLifeline;perimeter=lifelinePerimeter;whiteSpace=wrap;html=1;container=1;dropTarget=0;collapsible=0;recursiveResize=0;outlineConnect=0;portConstraint=eastwest;newEdgeStyle={&quot;curved&quot;:0,&quot;rounded&quot;:0};" parent="1" vertex="1">
          <mxGeometry x="430" y="160" width="110" height="480" as="geometry" />
        </mxCell>
        <mxCell id="WRZNmSoIend9t0IbDbHo-8" value="" style="html=1;points=[[0,0,0,0,5],[0,1,0,0,-5],[1,0,0,0,5],[1,1,0,0,-5]];perimeter=orthogonalPerimeter;outlineConnect=0;targetShapes=umlLifeline;portConstraint=eastwest;newEdgeStyle={&quot;curved&quot;:0,&quot;rounded&quot;:0};" parent="WRZNmSoIend9t0IbDbHo-4" vertex="1">
          <mxGeometry x="50" y="70" width="10" height="120" as="geometry" />
        </mxCell>
        <mxCell id="WRZNmSoIend9t0IbDbHo-18" value="" style="html=1;points=[[0,0,0,0,5],[0,1,0,0,-5],[1,0,0,0,5],[1,1,0,0,-5]];perimeter=orthogonalPerimeter;outlineConnect=0;targetShapes=umlLifeline;portConstraint=eastwest;newEdgeStyle={&quot;curved&quot;:0,&quot;rounded&quot;:0};" parent="WRZNmSoIend9t0IbDbHo-4" vertex="1">
          <mxGeometry x="55" y="120" width="10" height="30" as="geometry" />
        </mxCell>
        <mxCell id="WRZNmSoIend9t0IbDbHo-5" value="TrainSoldierCommand" style="shape=umlLifeline;perimeter=lifelinePerimeter;whiteSpace=wrap;html=1;container=1;dropTarget=0;collapsible=0;recursiveResize=0;outlineConnect=0;portConstraint=eastwest;newEdgeStyle={&quot;curved&quot;:0,&quot;rounded&quot;:0};" parent="1" vertex="1">
          <mxGeometry x="560" y="160" width="150" height="480" as="geometry" />
        </mxCell>
        <mxCell id="WRZNmSoIend9t0IbDbHo-10" value="" style="html=1;points=[[0,0,0,0,5],[0,1,0,0,-5],[1,0,0,0,5],[1,1,0,0,-5]];perimeter=orthogonalPerimeter;outlineConnect=0;targetShapes=umlLifeline;portConstraint=eastwest;newEdgeStyle={&quot;curved&quot;:0,&quot;rounded&quot;:0};" parent="WRZNmSoIend9t0IbDbHo-5" vertex="1">
          <mxGeometry x="70" y="90" width="10" height="40" as="geometry" />
        </mxCell>
        <mxCell id="WRZNmSoIend9t0IbDbHo-35" value="" style="html=1;points=[[0,0,0,0,5],[0,1,0,0,-5],[1,0,0,0,5],[1,1,0,0,-5]];perimeter=orthogonalPerimeter;outlineConnect=0;targetShapes=umlLifeline;portConstraint=eastwest;newEdgeStyle={&quot;curved&quot;:0,&quot;rounded&quot;:0};" parent="WRZNmSoIend9t0IbDbHo-5" vertex="1">
          <mxGeometry x="70" y="310" width="10" height="70" as="geometry" />
        </mxCell>
        <mxCell id="WRZNmSoIend9t0IbDbHo-6" value="ICamp" style="shape=umlLifeline;perimeter=lifelinePerimeter;whiteSpace=wrap;html=1;container=1;dropTarget=0;collapsible=0;recursiveResize=0;outlineConnect=0;portConstraint=eastwest;newEdgeStyle={&quot;curved&quot;:0,&quot;rounded&quot;:0};" parent="1" vertex="1">
          <mxGeometry x="730" y="160" width="110" height="480" as="geometry" />
        </mxCell>
        <mxCell id="WRZNmSoIend9t0IbDbHo-29" value="" style="html=1;points=[[0,0,0,0,5],[0,1,0,0,-5],[1,0,0,0,5],[1,1,0,0,-5]];perimeter=orthogonalPerimeter;outlineConnect=0;targetShapes=umlLifeline;portConstraint=eastwest;newEdgeStyle={&quot;curved&quot;:0,&quot;rounded&quot;:0};" parent="WRZNmSoIend9t0IbDbHo-6" vertex="1">
          <mxGeometry x="50" y="170" width="10" height="30" as="geometry" />
        </mxCell>
        <mxCell id="WRZNmSoIend9t0IbDbHo-33" value="" style="html=1;points=[[0,0,0,0,5],[0,1,0,0,-5],[1,0,0,0,5],[1,1,0,0,-5]];perimeter=orthogonalPerimeter;outlineConnect=0;targetShapes=umlLifeline;portConstraint=eastwest;newEdgeStyle={&quot;curved&quot;:0,&quot;rounded&quot;:0};" parent="WRZNmSoIend9t0IbDbHo-6" vertex="1">
          <mxGeometry x="50" y="260" width="10" height="70" as="geometry" />
        </mxCell>
        <mxCell id="WRZNmSoIend9t0IbDbHo-7" value="ICharacterFactory" style="shape=umlLifeline;perimeter=lifelinePerimeter;whiteSpace=wrap;html=1;container=1;dropTarget=0;collapsible=0;recursiveResize=0;outlineConnect=0;portConstraint=eastwest;newEdgeStyle={&quot;curved&quot;:0,&quot;rounded&quot;:0};" parent="1" vertex="1">
          <mxGeometry x="860" y="160" width="110" height="480" as="geometry" />
        </mxCell>
        <mxCell id="WRZNmSoIend9t0IbDbHo-38" value="" style="html=1;points=[[0,0,0,0,5],[0,1,0,0,-5],[1,0,0,0,5],[1,1,0,0,-5]];perimeter=orthogonalPerimeter;outlineConnect=0;targetShapes=umlLifeline;portConstraint=eastwest;newEdgeStyle={&quot;curved&quot;:0,&quot;rounded&quot;:0};" parent="WRZNmSoIend9t0IbDbHo-7" vertex="1">
          <mxGeometry x="50" y="360" width="10" height="50" as="geometry" />
        </mxCell>
        <mxCell id="WRZNmSoIend9t0IbDbHo-9" value="1: Train" style="html=1;verticalAlign=bottom;startArrow=none;endArrow=block;startSize=8;curved=0;rounded=0;entryX=0;entryY=0;entryDx=0;entryDy=5;startFill=0;" parent="1" source="WRZNmSoIend9t0IbDbHo-3" target="WRZNmSoIend9t0IbDbHo-8" edge="1">
          <mxGeometry relative="1" as="geometry">
            <mxPoint x="410" y="235" as="sourcePoint" />
          </mxGeometry>
        </mxCell>
        <mxCell id="WRZNmSoIend9t0IbDbHo-11" value="2: New" style="html=1;verticalAlign=bottom;endArrow=block;curved=0;rounded=0;entryX=0;entryY=0;entryDx=0;entryDy=5;" parent="1" source="WRZNmSoIend9t0IbDbHo-8" target="WRZNmSoIend9t0IbDbHo-10" edge="1">
          <mxGeometry relative="1" as="geometry">
            <mxPoint x="560" y="255" as="sourcePoint" />
          </mxGeometry>
        </mxCell>
        <mxCell id="WRZNmSoIend9t0IbDbHo-12" value="3: Return" style="html=1;verticalAlign=bottom;endArrow=open;dashed=1;endSize=8;curved=0;rounded=0;exitX=0;exitY=1;exitDx=0;exitDy=-5;entryX=1;entryY=0;entryDx=0;entryDy=5;entryPerimeter=0;" parent="1" source="WRZNmSoIend9t0IbDbHo-10" target="WRZNmSoIend9t0IbDbHo-18" edge="1">
          <mxGeometry relative="1" as="geometry">
            <mxPoint x="540" y="280" as="targetPoint" />
          </mxGeometry>
        </mxCell>
        <mxCell id="WRZNmSoIend9t0IbDbHo-30" value="4: AddTrainCommand" style="html=1;verticalAlign=bottom;startArrow=none;endArrow=block;startSize=8;curved=0;rounded=0;entryX=0;entryY=0;entryDx=0;entryDy=5;startFill=0;" parent="1" source="WRZNmSoIend9t0IbDbHo-8" target="WRZNmSoIend9t0IbDbHo-29" edge="1">
          <mxGeometry relative="1" as="geometry">
            <mxPoint x="710" y="335" as="sourcePoint" />
          </mxGeometry>
        </mxCell>
        <mxCell id="WRZNmSoIend9t0IbDbHo-32" value="5: Update" style="html=1;verticalAlign=bottom;startArrow=none;endArrow=block;startSize=8;curved=0;rounded=0;entryX=0;entryY=0;entryDx=0;entryDy=5;startFill=0;" parent="1" source="WRZNmSoIend9t0IbDbHo-1" target="WRZNmSoIend9t0IbDbHo-31" edge="1">
          <mxGeometry relative="1" as="geometry">
            <mxPoint x="150" y="405" as="sourcePoint" />
          </mxGeometry>
        </mxCell>
        <mxCell id="WRZNmSoIend9t0IbDbHo-34" value="6: RunCommand" style="html=1;verticalAlign=bottom;startArrow=none;endArrow=block;startSize=8;curved=0;rounded=0;entryX=0;entryY=0;entryDx=0;entryDy=5;startFill=0;" parent="1" source="WRZNmSoIend9t0IbDbHo-31" target="WRZNmSoIend9t0IbDbHo-33" edge="1">
          <mxGeometry relative="1" as="geometry">
            <mxPoint x="710" y="425" as="sourcePoint" />
          </mxGeometry>
        </mxCell>
        <mxCell id="WRZNmSoIend9t0IbDbHo-36" value="7: Execute" style="html=1;verticalAlign=bottom;endArrow=block;curved=0;rounded=0;entryX=1;entryY=0;entryDx=0;entryDy=5;" parent="1" source="WRZNmSoIend9t0IbDbHo-33" target="WRZNmSoIend9t0IbDbHo-35" edge="1">
          <mxGeometry relative="1" as="geometry">
            <mxPoint x="710" y="475" as="sourcePoint" />
          </mxGeometry>
        </mxCell>
        <mxCell id="WRZNmSoIend9t0IbDbHo-39" value="8: CreateSoldier" style="html=1;verticalAlign=bottom;startArrow=none;endArrow=block;startSize=8;curved=0;rounded=0;entryX=0;entryY=0;entryDx=0;entryDy=5;startFill=0;" parent="1" source="WRZNmSoIend9t0IbDbHo-35" target="WRZNmSoIend9t0IbDbHo-38" edge="1">
          <mxGeometry relative="1" as="geometry">
            <mxPoint x="840" y="525" as="sourcePoint" />
          </mxGeometry>
        </mxCell>
      </root>
    </mxGraphModel>
  </diagram>
</mxfile>
